<!--?xml version="1.0" standalone="no"?-->
              <svg id="sw-js-blob-svg" viewBox="0 0 100 100" xmlns="http://www.w3.org/2000/svg" version="1.1">
                    <defs> 
                        <linearGradient id="sw-gradient" x1="0" x2="1" y1="1" y2="0">
                            <stop id="stop1" stop-color="rgba(248, 117, 55, 1)" offset="0%"></stop>
                            <stop id="stop2" stop-color="rgba(251, 168, 31, 1)" offset="100%"></stop>
                        </linearGradient>
                    </defs>
                <path fill="url(#sw-gradient)" d="M26.4,-32.5C33.4,-31.3,37.7,-22.5,38.2,-14C38.7,-5.6,35.4,2.4,32,9.6C28.6,16.9,25.1,23.3,19.7,28C14.4,32.7,7.2,35.8,1.1,34.3C-4.9,32.7,-9.8,26.5,-17,22.4C-24.2,18.2,-33.7,16.1,-36.4,11C-39.2,6,-35.2,-2.1,-32.2,-10.2C-29.2,-18.2,-27.1,-26.3,-21.9,-28.1C-16.6,-29.9,-8.3,-25.5,0.7,-26.5C9.7,-27.4,19.4,-33.8,26.4,-32.5Z" width="100%" height="100%" transform="translate(50 50)" stroke-width="0" style="transition: all 0.3s ease 0s;"></path>
              </svg>